<?xml version="1.0" encoding="utf-8"?><svg xmlns="http://www.w3.org/2000/svg" xmlns:xlink="http://www.w3.org/1999/xlink"><symbol viewBox="0 0 56.48 56.48" id="american-express" xmlns="http://www.w3.org/2000/svg"><path d="M55.026 9.939H1.454C.65 9.939 0 10.59 0 11.393v33.694c0 .803.65 1.455 1.454 1.455h53.572c.804 0 1.454-.651 1.454-1.454V11.393c0-.803-.65-1.454-1.454-1.454zM13.894 26.663l-.168-.381v.021a.886.886 0 0 1-.886.886h-2.609a.887.887 0 0 1-.82-.549l-.267-.648H7.658l-.271.652a.885.885 0 0 1-.816.546H5.177a.888.888 0 0 1-.814-1.235l2.296-5.367a.887.887 0 0 1 .815-.537h1.904c.355 0 .674.211.815.536l.481 1.122v-.771c0-.489.396-.886.886-.886h2.095c.344 0 .659.202.805.515l.839 1.822.762-1.796a.884.884 0 0 1 .814-.541h2.138c.18 0 .337.067.478.159a.862.862 0 0 1 .478-.159h4.284c.166 0 .313.058.444.137a.864.864 0 0 1 .445-.137h2.95c.763 0 1.394.027 1.997.375.061.037.105.084.16.124a.882.882 0 0 1 .789-.499h1.309c.443 0 .795.33.86.753.574-.497 1.356-.753 2.408-.753h1.241c.197 0 .382.065.529.176a.881.881 0 0 1 .53-.176h1.921c.354 0 .673.212.814.537l.471 1.102v-.753c0-.489.397-.886.887-.886h1.953c.311 0 .598.162.758.428l.61 1.011v-.554c0-.489.398-.886.888-.886h1.312c.49 0 .886.397.886.886v5.367a.887.887 0 0 1-.886.886h-1.816a.887.887 0 0 1-.761-.428l-.787-1.305v.847a.887.887 0 0 1-.886.886h-2.611a.89.89 0 0 1-.818-.545l-.271-.652h-1.478l-.262.643a.882.882 0 0 1-.818.555h-1.502c-.571 0-1.593-.103-2.322-.714a.874.874 0 0 1-.852.714h-1.31a.875.875 0 0 1-.401-.107.853.853 0 0 1-.398.107h-1.294a.887.887 0 0 1-.887-.879l-.005-.677.002-.118c0-.072.002-.18-.004-.271a3.697 3.697 0 0 0-.249-.007h-.489v1.066a.886.886 0 0 1-.886.886H25.14a.867.867 0 0 1-.445-.137.855.855 0 0 1-.444.137h-4.284a.87.87 0 0 1-.478-.159.876.876 0 0 1-.478.159h-1.315a.885.885 0 0 1-.886-.885v-.022l-.17.38a.884.884 0 0 1-.81.528h-1.127a.885.885 0 0 1-.809-.529zm35.397 9.764h-2.498a.888.888 0 0 1-.815-.539c-.487.345-1.131.539-1.928.539h-2.498a.873.873 0 0 1-.385-.096.87.87 0 0 1-.384.096h-4.28a.848.848 0 0 1-.392-.1.871.871 0 0 1-.39.1h-1.287a.886.886 0 0 1-.887-.886v-.78a3.543 3.543 0 0 0-.004-.287 3.77 3.77 0 0 0-.26-.008h-.484v1.075c0 .49-.397.886-.886.886h-1.289a.886.886 0 0 1-.887-.886v-1.364c-.455.271-1.083.449-1.949.449h-.713v.915c0 .49-.397.886-.887.886h-2.493a.888.888 0 0 1-.663-.297l-.929-1.046-.979 1.06a.887.887 0 0 1-.65.285h-5.081a.887.887 0 0 1-.886-.887v-5.367c0-.491.397-.887.886-.887h5.158c.253 0 .492.106.659.294l.932 1.037.971-1.048a.885.885 0 0 1 .65-.283h4.098c.898 0 1.53.199 1.979.493a.876.876 0 0 1 .784-.493h2.962c.682 0 1.342.026 1.961.357.067.039.11.09.172.132a.875.875 0 0 1 .781-.489h4.28c.332 0 .612.191.764.462.422-.286.982-.462 1.688-.462h2.57a.88.88 0 0 1 .828.592c.44-.357 1.041-.592 1.842-.592h2.572c.489 0 .885.397.885.887v1.142c0 .313-.16.588-.405.746l.026.026c.44.452.64 1.01.64 1.76 0 1.614-1.083 2.58-2.899 2.578z"/><path d="M29.388 23.814c.334-.132.904-.575.904-1.43 0-.599-.244-.949-.648-1.189-.416-.24-.899-.257-1.554-.257h-2.95v5.367h1.284v-1.951h1.375c.462 0 .748.041.935.229.233.258.202.722.202 1.045l.006.677h1.294V25.25c0-.479-.031-.717-.213-.984-.114-.157-.354-.345-.635-.452zm-.772-.676c-.178.107-.386.11-.635.11h-1.559l.001-1.191h1.58c.222 0 .456.011.608.097.166.078.269.244.269.474 0 .234-.099.423-.264.51zm2.424-2.199h1.309v5.367H31.04zm15.177 0v3.738l-2.256-3.738h-1.953v5.076l-2.172-5.076h-1.921l-1.812 4.22h-.575c-.335 0-.697-.064-.894-.277-.241-.27-.353-.685-.353-1.259 0-.564.149-.99.368-1.216.254-.248.517-.318.988-.318h1.215v-1.15h-1.241c-.884 0-1.535.197-1.948.625-.55.575-.691 1.303-.691 2.099 0 .975.236 1.593.688 2.049.446.455 1.235.593 1.86.594h1.502l.482-1.197h2.664l.5 1.197h2.611v-4.028l2.434 4.028h1.816v-5.367h-1.312zm-8.254 3.05l.881-2.139.889 2.139h-1.77z"/><path d="M35.64 22.974c-.302-.001-.333.031-.37.066-.012.017-.102.21-.102.582 0 .368.059.545.102.625.045.012.128.026.252.026l.556-1.299h-.438zm5.142 8.31v-1.11h-4.28v5.368h4.28v-1.113l-3.004-.007v-1.066h2.93V32.26h-2.93v-.976zm-12.921-1.108h-4.098l-1.632 1.758-1.58-1.758h-5.158v5.367h5.081l1.642-1.777 1.58 1.777h2.493v-1.8h1.6c1.121 0 2.233-.308 2.233-1.799 0-1.486-1.143-1.77-2.161-1.768zm-8.036 4.25h-3.152v-1.068h2.815v-1.096h-2.815v-.976h3.215l1.403 1.563-1.466 1.577zm5.086.629l-1.97-2.188 1.97-2.116v4.304zm2.934-2.404h-1.656v-1.367h1.672c.464 0 .784.189.784.659 0 .465-.306.71-.8.708zm7.036.396c.336-.134.909-.57.911-1.429 0-.612-.255-.948-.658-1.192-.424-.225-.896-.252-1.545-.252h-2.961v5.367h1.288v-1.96h1.37c.468 0 .753.046.941.238.238.25.207.728.207 1.051v.671h1.287v-1.064c-.004-.473-.03-.717-.213-.979-.108-.155-.343-.347-.627-.451zm-.773-.667c-.172.102-.385.111-.635.111h-1.559v-1.206h1.58c.226 0 .456.005.612.097.166.087.265.254.265.483 0 .229-.099.416-.263.515zm11.576.328c-.295-.292-.773-.412-1.469-.428l-.689-.02c-.219 0-.363-.014-.5-.061a.412.412 0 0 1-.28-.4c0-.17.052-.299.194-.387.128-.087.279-.097.514-.097h2.352v-1.142h-2.57c-1.346 0-1.834.818-1.834 1.598 0 1.697 1.503 1.621 2.701 1.66.225 0 .359.037.457.119.09.076.156.198.156.355a.475.475 0 0 1-.15.35c-.108.102-.281.133-.523.133h-2.488v1.151h2.498c1.293 0 2.016-.539 2.016-1.694 0-.551-.135-.879-.385-1.137zm-28.81-11.771l-1.541 3.641-1.679-3.641H11.56v5.082l-2.183-5.082H7.473l-2.297 5.367h1.393l.498-1.197h2.67l.493 1.197h2.61v-4.207l1.863 4.206 1.129.001 1.86-4.203.005 4.203h1.315v-5.367h-2.138zm-9.35 3.052l.872-2.139.877 2.139H7.524zm16.726-1.934v-1.118h-4.284v5.368h4.284v-1.11h-3.002v-1.073h2.931v-1.099h-2.931v-.968zm26.674 10.653c-.293-.292-.772-.412-1.468-.428l-.69-.02c-.217 0-.362-.014-.5-.061a.414.414 0 0 1-.279-.4c0-.17.052-.299.193-.387.129-.087.281-.097.515-.097h2.353v-1.142h-2.572c-1.344 0-1.834.818-1.834 1.598 0 1.697 1.504 1.621 2.703 1.66.224 0 .357.037.457.119a.461.461 0 0 1 .155.355.481.481 0 0 1-.149.35c-.109.102-.282.133-.524.133h-2.487v1.151h2.498c1.293 0 2.014-.539 2.014-1.694 0-.551-.133-.879-.385-1.137z"/></symbol><symbol viewBox="0 0 64 64" id="close" xmlns="http://www.w3.org/2000/svg"><path d="M28.941 31.786L.613 60.114a2.014 2.014 0 1 0 2.848 2.849l28.541-28.541 28.541 28.541c.394.394.909.59 1.424.59a2.014 2.014 0 0 0 1.424-3.439L35.064 31.786 63.41 3.438A2.014 2.014 0 1 0 60.562.589L32.003 29.15 3.441.59A2.015 2.015 0 0 0 .593 3.439l28.348 28.347z"/></symbol><symbol viewBox="0 0 612 612" id="cross" xmlns="http://www.w3.org/2000/svg"><path d="M612 36.004L576.521.603 306 270.608 35.478.603 0 36.004l270.522 270.007L0 575.997l35.478 35.4L306 341.411l270.521 269.986 35.479-35.4-270.541-269.986z"/></symbol><symbol viewBox="0 0 512 512" id="eye" xmlns="http://www.w3.org/2000/svg"><path d="M256 96C144.341 96 47.559 161.021 0 256c47.559 94.979 144.341 160 256 160 111.656 0 208.439-65.021 256-160-47.559-94.979-144.344-160-256-160zm126.225 84.852c30.082 19.187 55.572 44.887 74.719 75.148-19.146 30.261-44.639 55.961-74.719 75.148C344.428 355.257 300.779 368 256 368c-44.78 0-88.428-12.743-126.225-36.852C99.695 311.96 74.205 286.26 55.058 256c19.146-30.262 44.637-55.962 74.717-75.148a235.143 235.143 0 0 1 5.929-3.65C130.725 190.866 128 205.613 128 221c0 70.691 57.308 128 128 128 70.691 0 128-57.309 128-128 0-15.387-2.725-30.134-7.703-43.799a240.633 240.633 0 0 1 5.928 3.651zM256 205c0 26.51-21.49 48-48 48s-48-21.49-48-48 21.49-48 48-48 48 21.49 48 48z"/></symbol><symbol viewBox="0 0 18.136 18.136" id="facebook" xmlns="http://www.w3.org/2000/svg"><path d="M16.28.001H1.854A1.854 1.854 0 0 0 0 1.855v14.426c0 1.025.831 1.854 1.854 1.854H16.28a1.854 1.854 0 0 0 1.856-1.854V1.855A1.854 1.854 0 0 0 16.28.001zm-.316 3.993s-2.685-.98-2.685 1.014v1.506h2.619l-.232 2.488h-2.387v8.479h-3.208V9.002H8.499V6.514h1.572V3.897s-.033-2.021 2.603-2.603c1.85-.41 3.649.181 3.649.181l-.359 2.519z"/></symbol><symbol viewBox="-3 0 512 512" id="guarantee" xmlns="http://www.w3.org/2000/svg"><path d="M425.328 319.285c21.395-32.492 33.867-71.355 33.867-113.086C459.195 92.5 366.691 0 252.992 0S46.793 92.5 46.793 206.2c0 41.73 12.473 80.593 33.863 113.085L0 436.915l92.293-17.208L109.503 512l76.063-110.934c21.141 7.336 43.825 11.332 67.426 11.332 23.606 0 46.29-3.996 67.426-11.332L396.484 512l17.207-92.293 92.293 17.207zM125.813 434.852l-9.387-50.344-50.34 9.39 33.969-49.543a207.545 207.545 0 0 0 57.312 44.485zM76.969 206.199c0-97.058 78.965-176.023 176.023-176.023 97.063 0 176.028 78.965 176.028 176.023 0 97.063-78.965 176.028-176.028 176.028-97.058 0-176.023-78.965-176.023-176.028zm312.59 178.309l-9.387 50.344-31.55-46.012a207.545 207.545 0 0 0 57.312-44.485l33.968 49.54zm0 0"/><path d="M216.234 251.484l-49.062-49.058-21.336 21.336 70.398 70.398 143.918-143.914-21.336-21.336zm0 0"/></symbol><symbol viewBox="0 0 58.365 58.365" id="home" xmlns="http://www.w3.org/2000/svg"><path d="M57.863 26.632L29.182 0 .502 26.632a1.001 1.001 0 0 0 1.361 1.466l3.319-3.082v33.349h48v-33.35l3.319 3.082a.995.995 0 0 0 .681.267 1 1 0 0 0 .681-1.732zM23.182 56.365v-16c0-3.309 2.691-6 6-6s6 2.691 6 6v16h-12zm28 0h-14v-16c0-4.411-3.589-8-8-8s-8 3.589-8 8v16h-14V23.158l22-20.429 22 20.429v33.207z"/></symbol><symbol viewBox="0 0 60 60" id="hourglass" xmlns="http://www.w3.org/2000/svg"><circle cx="30" cy="26" r="1"/><circle cx="33" cy="24" r="1"/><circle cx="27" cy="24" r="1"/><circle cx="24" cy="22" r="1"/><circle cx="36" cy="22" r="1"/><circle cx="39" cy="20" r="1"/><circle cx="21" cy="20" r="1"/><circle cx="30" cy="22" r="1"/><circle cx="30" cy="34" r="1"/><circle cx="30" cy="37" r="1"/><circle cx="30" cy="40" r="1"/><circle cx="30" cy="43" r="1"/><circle cx="30" cy="46" r="1"/><circle cx="30" cy="49" r="1"/><path d="M54 58h-3v-4h-5V43.778c0-2.7-1.342-5.208-3.589-6.706L31.803 30l10.608-7.072A8.045 8.045 0 0 0 46 16.222V6h5V2h3a1 1 0 1 0 0-2H6a1 1 0 1 0 0 2h3v4h5v10.222c0 2.7 1.342 5.208 3.589 6.706L28.197 30l-10.608 7.072A8.045 8.045 0 0 0 14 43.778V54H9v4H6a1 1 0 1 0 0 2h48a1 1 0 1 0 0-2zM18.698 21.264A6.05 6.05 0 0 1 16 16.222V6h28v10.222a6.05 6.05 0 0 1-2.698 5.042L30 28.798l-11.302-7.534zM16 43.778a6.05 6.05 0 0 1 2.698-5.042L30 31.202l11.302 7.534A6.05 6.05 0 0 1 44 43.778V54H16V43.778z"/></symbol><symbol viewBox="0 0 477.175 477.175" id="left" xmlns="http://www.w3.org/2000/svg"><path d="M145.188 238.575l215.5-215.5c5.3-5.3 5.3-13.8 0-19.1s-13.8-5.3-19.1 0l-225.1 225.1c-5.3 5.3-5.3 13.8 0 19.1l225.1 225c2.6 2.6 6.1 4 9.5 4s6.9-1.3 9.5-4c5.3-5.3 5.3-13.8 0-19.1l-215.4-215.5z"/></symbol><symbol viewBox="0 0 512 512" id="location" xmlns="http://www.w3.org/2000/svg"><path d="M256 0C153.755 0 70.573 83.182 70.573 185.426c0 126.888 165.939 313.167 173.004 321.035 6.636 7.391 18.222 7.378 24.846 0 7.065-7.868 173.004-194.147 173.004-321.035C441.425 83.182 358.244 0 256 0zm0 278.719c-51.442 0-93.292-41.851-93.292-93.293S204.559 92.134 256 92.134s93.291 41.851 93.291 93.293-41.85 93.292-93.291 93.292z"/></symbol><symbol viewBox="0 0 31.012 31.012" id="mail" xmlns="http://www.w3.org/2000/svg"><path d="M28.512 26.529H2.5a2.503 2.503 0 0 1-2.5-2.5V6.982c0-1.379 1.122-2.5 2.5-2.5h26.012c1.378 0 2.5 1.121 2.5 2.5v17.047c0 1.379-1.122 2.5-2.5 2.5zM2.5 5.482c-.827 0-1.5.673-1.5 1.5v17.047c0 .827.673 1.5 1.5 1.5h26.012c.827 0 1.5-.673 1.5-1.5V6.982c0-.827-.673-1.5-1.5-1.5H2.5z"/><path d="M15.506 18.018c-.665 0-1.33-.221-1.836-.662L.891 6.219a.5.5 0 1 1 .658-.754l12.778 11.137c.64.557 1.72.556 2.358 0L29.46 5.466a.497.497 0 0 1 .706.049.5.5 0 0 1-.048.705L17.342 17.355c-.506.442-1.171.663-1.836.663z"/></symbol><symbol viewBox="0 -91 512 512" id="mastercard" xmlns="http://www.w3.org/2000/svg"><path d="M347.34 0C313.574 0 282.152 10.223 256 27.723 229.844 10.223 198.426 0 164.66 0 73.867 0 0 73.86 0 164.645c0 90.785 73.867 164.644 164.66 164.644 33.766 0 65.188-10.223 91.34-27.723 26.156 17.5 57.574 27.723 91.34 27.723 90.793 0 164.66-73.86 164.66-164.644C512 73.859 438.133 0 347.34 0zm0 299.29c-49.031 0-92.024-26.345-115.57-65.614h17.304c8.285 0 15-6.715 15-15 0-8.281-6.715-15-15-15h-30.617a134 134 0 0 1-4.262-18.813h58.883c8.281 0 15-6.715 15-15 0-8.281-6.719-15-15-15h-60.043a133.65 133.65 0 0 1 2.711-18.808h33.328c8.285 0 15-6.72 15-15 0-8.285-6.715-15-15-15h-22.96C247.94 61.082 294.077 30 347.34 30 421.59 30 482 90.402 482 164.645c0 74.242-60.41 134.644-134.66 134.644zm0 0"/></symbol><symbol viewBox="0 0 512 512" id="messenger" xmlns="http://www.w3.org/2000/svg"><path d="M256 0C114.624 0 0 106.112 0 237.024c0 74.592 37.216 141.12 95.392 184.576V512l87.168-47.84c23.264 6.432 47.904 9.92 73.44 9.92 141.376 0 256-106.112 256-237.024S397.376 0 256 0zm25.44 319.2l-65.184-69.536-127.2 69.536 139.936-148.544 66.784 69.536 125.6-69.536L281.44 319.2z"/></symbol><symbol viewBox="0 0 42 42" id="minus" xmlns="http://www.w3.org/2000/svg"><path d="M37.059 16H4.941C2.224 16 0 18.282 0 21s2.224 5 4.941 5h32.118C39.776 26 42 23.718 42 21s-2.224-5-4.941-5z"/></symbol><symbol viewBox="0 0 50.409 50.409" id="paypal" xmlns="http://www.w3.org/2000/svg"><path d="M9.035 20.604a2.043 2.043 0 0 0-.75-.809 3.513 3.513 0 0 0-1.193-.438 9.75 9.75 0 0 0-1.621-.128l-2.867.002a.718.718 0 0 0-.66.524L.015 28.157c-.07.284.117.522.415.522h1.373a.703.703 0 0 0 .659-.522l.471-2.04a.703.703 0 0 1 .658-.521h.393c1.679-.002 2.979-.345 3.913-1.032.939-.688 1.402-1.597 1.402-2.723-.001-.493-.082-.907-.264-1.237zm-2.961 2.745c-.415.304-.992.456-1.736.456h-.336c-.299 0-.482-.236-.417-.524l.413-1.784c.058-.286.359-.523.654-.521l.45-.003c.525 0 .926.091 1.194.267.265.174.398.451.396.818.008.558-.205.987-.618 1.291zm42.101-3.462l-.086.026-.115.016-.141-.022-.072-.07-.033-.11-.002-.165v-.611h.459v-.189h-.459v-.381h-.227v.381h-.154v.189h.154v.711l.106.352.312.112.131-.011.139-.027v-.201zm2.129-1.028l-.328-.135-.242.049-.246.166-.143-.159-.232-.055-.223.049-.211.136v-.148h-.223v1.335h.222V19.1l.187-.116.186-.046.152.027.075.077.033.128.011.165v.763h.223v-.854l-.004-.071-.004-.065.19-.121.188-.047.147.027.08.077.028.129.015.163v.763h.224v-.867zm-34.648 2.946c-.518-.292-1.336-.438-2.454-.438-.553 0-1.104.043-1.661.129-.411.063-.451.075-.704.13-.522.114-.604.635-.604.635l-.168.691c-.095.441.159.424.265.387.228-.068.355-.138.821-.242.445-.101.914-.177 1.286-.172.549 0 .969.058 1.249.176.276.12.414.326.414.624l-.024.194-.198.122c-.779.049-1.342.121-2.025.22-.668.093-1.254.256-1.741.479-.523.23-.911.539-1.182.932-.262.395-.393.874-.393 1.436 0 .529.19.966.559 1.304.371.332.861.494 1.447.494.371-.002.658-.031.862-.08l.665-.229.563-.312.518-.342.007.01-.052.22-.003.009v.002c-.056.268.106.488.367.514l.005.006h1.275l.018-.008a.71.71 0 0 0 .591-.514l1.001-4.333.052-.353.024-.331c.004-.614-.261-1.069-.78-1.36zm-2.214 4.872l-.214.282-.54.279a1.923 1.923 0 0 1-.718.155c-.338 0-.603-.049-.782-.149l-.265-.515c0-.279.064-.5.201-.67l.582-.396c.249-.084.553-.155.905-.204.314-.039.934-.11 1.015-.112l.095.167c-.019.095-.195.831-.279 1.163zm27.152-4.866c-.521-.292-1.338-.439-2.453-.439-.553 0-1.105.043-1.66.132-.412.06-.453.073-.707.127-.521.113-.602.636-.602.636l-.168.69c-.094.441.154.421.27.387.229-.068.352-.135.814-.243.443-.1.916-.174 1.289-.172.547 0 .967.059 1.246.177.278.12.414.328.414.623l-.021.193-.196.125c-.787.047-1.351.119-2.027.218-.666.093-1.254.255-1.742.479-.521.231-.914.54-1.182.934-.265.395-.394.873-.394 1.43 0 .533.188.97.562 1.306.373.331.858.497 1.444.497.369-.004.656-.028.861-.081l.663-.226.568-.312.514-.346.009.011-.047.222-.005.004.002.004c-.062.268.101.49.365.514l.002.005h1.274l.021-.007a.703.703 0 0 0 .584-.518l1.004-4.327.053-.355.029-.332c.001-.612-.261-1.065-.784-1.356zm-2.209 4.872l-.223.285-.535.277a1.945 1.945 0 0 1-.715.155c-.349 0-.607-.05-.781-.15l-.268-.513c0-.28.065-.499.196-.672.133-.163.336-.297.588-.395a5.1 5.1 0 0 1 .904-.203c.312-.039.93-.112 1.01-.113l.097.167c-.014.095-.191.828-.273 1.162zm-4.416-6.048a2.124 2.124 0 0 0-.756-.812 3.37 3.37 0 0 0-1.193-.438 9.44 9.44 0 0 0-1.615-.126l-2.871.002a.713.713 0 0 0-.655.522l-1.931 8.406c-.07.285.122.521.414.521l1.375-.002a.712.712 0 0 0 .66-.52l.465-2.041a.712.712 0 0 1 .66-.521h.393c1.681 0 2.984-.346 3.922-1.031.927-.693 1.396-1.6 1.396-2.727-.005-.491-.09-.906-.264-1.233zm-2.961 2.749c-.414.298-.992.45-1.732.45h-.342a.411.411 0 0 1-.42-.523l.416-1.781a.698.698 0 0 1 .656-.521l.445-.003c.528.003.924.09 1.194.266.269.176.396.452.399.818.003.558-.204.988-.616 1.294zm14.734-3.534c.063-.287-.117-.52-.412-.516H44.1c-.252 0-.479.187-.59.417l-.068.106-.062.272-1.719 7.814-.056.24.002.006c-.057.257.101.451.345.488l.021.029h1.277c.25 0 .485-.19.592-.424l.066-.1 1.838-8.331-.004-.001zm-20.756 1.622c-.325.004-1.646 0-1.646 0-.296 0-.676.239-.864.524 0 0-1.966 3.374-2.157 3.713l-.228-.003-.612-3.687c-.068-.29-.371-.538-.748-.538l-1.23.002c-.296 0-.478.236-.411.524 0 0 .934 5.315 1.121 6.566.087.69-.011.813-.011.813l-1.216 2.118c-.18.288-.083.523.212.523l1.422-.002c.296 0 .685-.233.861-.522l5.47-9.252c0 .001.526-.79.037-.779z"/></symbol><symbol viewBox="0 0 533.333 533.333" id="pdf" xmlns="http://www.w3.org/2000/svg"><path d="M438.548 307.021c-7.108-7.003-22.872-10.712-46.86-11.027-16.238-.179-35.782 1.251-56.339 4.129-9.205-5.311-18.691-11.091-26.139-18.051-20.033-18.707-36.755-44.673-47.175-73.226a267.572 267.572 0 0 0 1.795-7.403s11.284-64.093 8.297-85.763c-.411-2.972-.664-3.834-1.463-6.144l-.98-2.518c-3.069-7.079-9.087-14.58-18.522-14.171l-5.533-.176-.152-.003c-10.521 0-19.096 5.381-21.347 13.424-6.842 25.226.218 62.964 13.012 111.842l-3.275 7.961c-9.161 22.332-20.641 44.823-30.77 64.665l-1.317 2.581c-10.656 20.854-20.325 38.557-29.09 53.554l-9.05 4.785c-.659.348-16.169 8.551-19.807 10.752-30.862 18.427-51.313 39.346-54.706 55.946-1.08 5.297-.276 12.075 5.215 15.214l8.753 4.405c3.797 1.902 7.801 2.866 11.903 2.866 21.981 0 47.5-27.382 82.654-88.732 40.588-13.214 86.799-24.197 127.299-30.255 30.864 17.379 68.824 29.449 92.783 29.449 4.254 0 7.921-.406 10.901-1.194 4.595-1.217 8.468-3.838 10.829-7.394 4.648-6.995 5.591-16.631 4.329-26.497-.376-2.927-2.715-6.547-5.245-9.019zM110.233 423.983c4.008-10.96 19.875-32.627 43.335-51.852 1.475-1.196 5.108-4.601 8.435-7.762-24.533 39.128-40.962 54.723-51.77 59.614zm138.952-319.98c7.066 0 11.085 17.81 11.419 34.507.333 16.698-3.572 28.417-8.416 37.088-4.012-12.838-5.951-33.073-5.951-46.304 0 0-.295-25.291 2.948-25.291zm-41.45 228.025c4.922-8.811 10.043-18.103 15.276-27.957 12.756-24.123 20.812-42.999 26.812-58.514 11.933 21.71 26.794 40.167 44.264 54.955a174.49 174.49 0 0 0 6.913 5.547c-35.526 7.029-66.231 15.578-93.265 25.969zm223.987-2.001c-2.164 1.353-8.362 2.135-12.349 2.135-12.867 0-28.787-5.883-51.105-15.451 8.575-.635 16.438-.957 23.489-.957 12.906 0 16.729-.056 29.349 3.163s12.779 9.757 10.616 11.11zm38.816-226.157L396.13 29.463C379.925 13.258 347.917 0 325 0H75C52.083 0 33.333 18.75 33.333 41.667v450c0 22.916 18.75 41.666 41.667 41.666h383.333c22.916 0 41.666-18.75 41.666-41.666V175c.001-22.917-13.257-54.926-29.461-71.13zm-23.57 23.57c1.631 1.631 3.255 3.633 4.833 5.893h-85.134V48.2c2.261 1.578 4.263 3.203 5.893 4.833l74.408 74.407zm19.699 364.227c0 4.517-3.816 8.333-8.333 8.333H75c-4.517 0-8.333-3.816-8.333-8.333v-450c0-4.517 3.817-8.333 8.333-8.333h250c2.517 0 5.341.318 8.334.887v132.446H465.78c.569 2.993.887 5.816.887 8.333v316.667z"/></symbol><symbol viewBox="0 0 38 38" id="percent" xmlns="http://www.w3.org/2000/svg"><path d="M.293 36.293l36-36 1.414 1.414-36 36-1.414-1.414zM6 12c3.309 0 6-2.691 6-6S9.309 0 6 0 0 2.691 0 6s2.691 6 6 6zM6 2c2.206 0 4 1.794 4 4s-1.794 4-4 4-4-1.794-4-4 1.794-4 4-4zm26 24c-3.309 0-6 2.691-6 6s2.691 6 6 6 6-2.691 6-6-2.691-6-6-6zm0 10c-2.206 0-4-1.794-4-4s1.794-4 4-4 4 1.794 4 4-1.794 4-4 4z"/></symbol><symbol viewBox="0 0 29.731 29.731" id="phone" xmlns="http://www.w3.org/2000/svg"><path d="M23.895 29.731c-1.237 0-2.731-.31-4.374-.93-3.602-1.358-7.521-4.042-11.035-7.556C4.971 17.73 2.287 13.81.928 10.208-.307 6.933-.31 4.245.921 3.015c.177-.177.357-.367.543-.563C2.587 1.271 3.856-.058 5.538.002 6.697.05 7.82.77 8.97 2.201c3.398 4.226 1.866 5.732.093 7.478l-.313.31c-.29.29-.838 1.633 4.26 6.731 1.664 1.664 3.083 2.882 4.217 3.619.714.464 1.991 1.166 2.515.642l.315-.318c1.744-1.769 3.25-3.296 7.473.099 1.431 1.15 2.15 2.272 2.198 3.433.069 1.681-1.27 2.953-2.452 4.075-.195.186-.385.366-.562.542-.611.612-1.588.919-2.819.919zM5.418 1C4.223 1 3.144 2.136 2.189 3.141c-.192.202-.378.398-.561.581-.917.916-.824 3.323.236 6.134 1.31 3.472 3.913 7.266 7.33 10.683 3.416 3.415 7.208 6.018 10.681 7.327 2.811 1.062 5.218 1.152 6.133.237.183-.183.379-.369.581-.56 1.027-.976 2.192-2.082 2.141-3.309-.035-.843-.649-1.75-1.825-2.695-3.519-2.83-4.503-1.831-6.135-.176l-.32.323c-.78.781-2.047.608-3.767-.51-1.193-.776-2.667-2.038-4.379-3.751-4.231-4.23-5.584-6.819-4.26-8.146l.319-.315c1.659-1.632 2.66-2.617-.171-6.138-.947-1.175-1.853-1.789-2.696-1.825L5.418 1z"/></symbol><symbol viewBox="0 0 60 60" id="play-button" xmlns="http://www.w3.org/2000/svg"><path d="M45.563 29.174l-22-15A1 1 0 1 0 22 15v30a.999.999 0 0 0 1.563.826l22-15a1 1 0 0 0 0-1.652zM24 43.107V16.893L43.225 30 24 43.107z"/><path d="M30 0C13.458 0 0 13.458 0 30s13.458 30 30 30 30-13.458 30-30S46.542 0 30 0zm0 58C14.561 58 2 45.439 2 30S14.561 2 30 2s28 12.561 28 28-12.561 28-28 28z"/></symbol><symbol viewBox="0 0 512 512" id="plus" xmlns="http://www.w3.org/2000/svg"><path d="M490.667 234.667H277.333V21.333C277.333 9.551 267.782 0 256 0s-21.333 9.551-21.333 21.333v213.333H21.333C9.551 234.667 0 244.218 0 256s9.551 21.333 21.333 21.333h213.333v213.333c0 11.782 9.551 21.333 21.333 21.333s21.333-9.551 21.333-21.333V277.333h213.333c11.782 0 21.333-9.551 21.333-21.333s-9.549-21.333-21.331-21.333z"/></symbol><symbol viewBox="0 0 512 512" id="present" xmlns="http://www.w3.org/2000/svg"><path d="M478.609 99.726H441.34c4.916-7.78 8.16-16.513 9.085-25.749C453.38 44.46 437.835 18 411.37 6.269c-24.326-10.783-51.663-6.375-71.348 11.479l-47.06 42.65c-9.165-10.024-22.34-16.324-36.962-16.324-14.648 0-27.844 6.32-37.011 16.375l-47.12-42.706C152.152-.111 124.826-4.502 100.511 6.275 74.053 18.007 58.505 44.476 61.469 73.992c.927 9.229 4.169 17.958 9.084 25.734H33.391C14.949 99.726 0 114.676 0 133.117v50.087c0 9.22 7.475 16.696 16.696 16.696h478.609c9.22 0 16.696-7.475 16.696-16.696v-50.087c-.001-18.441-14.95-33.391-33.392-33.391zm-272.696-5.565v5.565H127.37c-20.752 0-37.084-19.346-31.901-40.952 2.283-9.515 9.151-17.626 18.034-21.732 12.198-5.638 25.71-3.828 35.955 5.445l56.469 51.182c-.003.165-.014.327-.014.492zm211.381-24.617c-1.244 17.353-16.919 30.184-34.316 30.184h-76.891v-5.565c0-.197-.012-.392-.014-.589l55.594-50.391c8.554-7.753 20.523-11.372 31.587-8.072 15.877 4.736 25.201 18.238 24.04 34.433zM33.391 233.291v244.87c0 18.442 14.949 33.391 33.391 33.391h155.826V233.291H33.391zm256 0v278.261h155.826c18.442 0 33.391-14.949 33.391-33.391v-244.87H289.391z"/></symbol><symbol viewBox="0 0 365.442 365.442" id="question" xmlns="http://www.w3.org/2000/svg"><path d="M212.994 274.074h-68.522c-3.042 0-5.708 1.149-7.992 3.429-2.286 2.286-3.427 4.948-3.427 7.994v68.525c0 3.046 1.145 5.712 3.427 7.994 2.284 2.279 4.947 3.426 7.992 3.426h68.522c3.042 0 5.715-1.144 7.99-3.426 2.29-2.282 3.433-4.948 3.433-7.994v-68.525c0-3.046-1.14-5.708-3.433-7.994-2.275-2.286-4.948-3.429-7.99-3.429zm89.941-205.123c-7.806-14.378-17.891-26.506-30.266-36.406-12.367-9.896-26.271-17.799-41.685-23.697C215.567 2.952 200.246 0 185.016 0 127.157 0 83 25.315 52.544 75.946c-1.521 2.473-2.046 5.137-1.571 7.993.478 2.852 1.953 5.232 4.427 7.135l46.824 35.691c2.474 1.52 4.854 2.281 7.139 2.281 3.427 0 6.375-1.525 8.852-4.57 13.702-17.128 23.887-28.072 30.548-32.833 8.186-5.518 18.461-8.276 30.833-8.276 11.61 0 21.838 3.046 30.692 9.132 8.85 6.092 13.271 13.135 13.271 21.129 0 8.942-2.375 16.178-7.135 21.698-4.757 5.518-12.754 10.845-23.986 15.986-14.842 6.661-28.457 16.988-40.823 30.978-12.375 13.991-18.558 28.885-18.558 44.682v12.847c0 3.62.994 7.187 2.996 10.708 2 3.524 4.425 5.283 7.282 5.283h68.521c3.046 0 5.708-1.472 7.994-4.432 2.279-2.942 3.426-6.036 3.426-9.267 0-4.757 2.617-11.14 7.847-19.13 5.235-7.994 11.752-14.186 19.562-18.565 7.419-4.186 13.219-7.56 17.411-10.133 4.196-2.566 9.664-6.715 16.423-12.421 6.756-5.712 11.991-11.375 15.698-16.988 3.713-5.614 7.046-12.896 9.996-21.844 2.956-8.945 4.428-18.558 4.428-28.835-.002-15.798-3.907-30.881-11.706-45.244z"/></symbol><symbol viewBox="0 0 477.175 477.175" id="right" xmlns="http://www.w3.org/2000/svg"><path d="M360.731 229.075l-225.1-225.1c-5.3-5.3-13.8-5.3-19.1 0s-5.3 13.8 0 19.1l215.5 215.5-215.5 215.5c-5.3 5.3-5.3 13.8 0 19.1 2.6 2.6 6.1 4 9.5 4 3.4 0 6.9-1.3 9.5-4l225.1-225.1c5.3-5.2 5.3-13.8.1-19z"/></symbol><symbol viewBox="0 0 56.966 56.966" id="search" xmlns="http://www.w3.org/2000/svg"><path d="M55.146 51.887L41.588 37.786A22.926 22.926 0 0 0 46.984 23c0-12.682-10.318-23-23-23s-23 10.318-23 23 10.318 23 23 23c4.761 0 9.298-1.436 13.177-4.162l13.661 14.208c.571.593 1.339.92 2.162.92.779 0 1.518-.297 2.079-.837a3.004 3.004 0 0 0 .083-4.242zM23.984 6c9.374 0 17 7.626 17 17s-7.626 17-17 17-17-7.626-17-17 7.626-17 17-17z"/></symbol><symbol viewBox="0 0 511.997 511.997" id="shopping-cart" xmlns="http://www.w3.org/2000/svg"><path d="M405.387 362.612c-35.202 0-63.84 28.639-63.84 63.84s28.639 63.84 63.84 63.84 63.84-28.639 63.84-63.84-28.639-63.84-63.84-63.84zm0 89.376c-14.083 0-25.536-11.453-25.536-25.536s11.453-25.536 25.536-25.536c14.083 0 25.536 11.453 25.536 25.536s-11.453 25.536-25.536 25.536zm102.54-336.113a19.128 19.128 0 0 0-15.079-7.348H118.22l-17.237-72.12a19.16 19.16 0 0 0-18.629-14.702H19.152C8.574 21.704 0 30.278 0 40.856s8.574 19.152 19.152 19.152h48.085l62.244 260.443a19.153 19.153 0 0 0 18.629 14.702h298.135c8.804 0 16.477-6.001 18.59-14.543l46.604-188.329a19.185 19.185 0 0 0-3.512-16.406zM431.261 296.85H163.227l-35.853-150.019h341.003L431.261 296.85zm-257.615 65.762c-35.202 0-63.84 28.639-63.84 63.84s28.639 63.84 63.84 63.84 63.84-28.639 63.84-63.84-28.639-63.84-63.84-63.84zm0 89.376c-14.083 0-25.536-11.453-25.536-25.536s11.453-25.536 25.536-25.536 25.536 11.453 25.536 25.536-11.453 25.536-25.536 25.536z"/></symbol><symbol viewBox="0 0 422.692 422.692" id="support" xmlns="http://www.w3.org/2000/svg"><path d="M271.786 289.626v-7.36c2.08-1.68 4.08-3.52 6-5.44a109.36 109.36 0 0 0 27.68-60.96 53.762 53.762 0 0 0 34.72-20.64c11.6-16.4 12.64-40 2.96-69.6a8.002 8.002 0 0 0-3.2-4.16l-4.4-2.96a108.478 108.478 0 0 0-25.92-73.04c-21.52-24.24-54.56-36.48-98.32-36.64-43.68 0-76.8 12.4-98.32 36.32a108.478 108.478 0 0 0-25.92 73.04l-4.4 2.96a8.002 8.002 0 0 0-3.2 4.16c-9.68 29.76-8.64 53.2 2.96 69.6a53.918 53.918 0 0 0 34.72 20.88 109.44 109.44 0 0 0 27.76 61.04 78.037 78.037 0 0 0 6 5.44v7.36c-30.64 5.92-152.96 34.64-150.88 116.24a8 8 0 0 0 8 8h406.64a8 8 0 0 0 8-8c2.08-81.6-120.24-110.32-150.88-116.24zm-159.44-91.68a34.72 34.72 0 0 1-16.96-12.4l.4.08c-8-11.68-8.72-29.36-1.6-52.72l5.84-3.92a8 8 0 0 0 3.52-7.44 94.558 94.558 0 0 1 21.76-65.84c18.08-20.48 47.12-30.72 86-30.88 38.88-.16 67.92 10.4 86.32 30.88a94.558 94.558 0 0 1 21.76 65.84 8 8 0 0 0 3.52 7.44l5.84 3.92c7.12 23.28 6.64 41.04-1.6 52.72a34.886 34.886 0 0 1-17.04 12.4 53.277 53.277 0 0 0 13.04-40 37.441 37.441 0 0 0-12.88-22.4c-3.44-80-59.52-88.96-83.68-88.96-5.114-.015-10.222.36-15.28 1.12a100.705 100.705 0 0 0-15.28-1.12c-24 0-80 8.8-83.68 88.96a37.44 37.44 0 0 0-13.04 22.32 53.2 53.2 0 0 0 13.04 40zm182-65.6a164.805 164.805 0 0 1-95.6-24 8 8 0 0 0-10.4 1.04c-16 17.2-45.2 21.2-59.28 22.08 4.32-56.56 38.56-68.88 67.36-68.88a77.331 77.331 0 0 1 13.68 1.12 7.982 7.982 0 0 0 3.2 0 77.71 77.71 0 0 1 13.68-1.12c28.56 0 62.96 12.64 66.96 69.68l.4.08zm-162.48 67.12l.32.08a7.997 7.997 0 0 0-2-5.36c-10.96-12.56-16-24-14.64-33.44a21.2 21.2 0 0 1 7.28-13.52c10.56 0 48-2 72-22.72a180.395 180.395 0 0 0 88.8 24c5.36 0 10.8 0 16.48-.88a21.118 21.118 0 0 1 7.2 13.12c1.36 9.28-3.68 20.88-14.64 33.44a7.997 7.997 0 0 0-2 5.36v4.16l-46.56 24.96c-9.24-8.748-23.823-8.349-32.571.891-8.748 9.24-8.349 23.823.891 32.571 9.24 8.748 23.823 8.349 32.571-.891a23.039 23.039 0 0 0 6.309-15.851c.036-.72.036-1.44 0-2.16l36.72-19.68a88.007 88.007 0 0 1-21.44 42.24 71.28 71.28 0 0 1-53.04 19.84h-4a71.44 71.44 0 0 1-52.96-19.76c-25.28-25.2-24.72-66-24.72-66.4zm103.44 45.92a7.12 7.12 0 1 1-14.24 0 7.12 7.12 0 0 1 14.24 0zm-32 152H16.266c6.32-60.08 104-85.2 134.56-91.68v14.32c0 18.16 22.08 32 52.48 34.32v43.04zm-36.48-77.36v-27.6a96.721 96.721 0 0 0 42.48 8.96h4a96.721 96.721 0 0 0 42.48-8.96v27.6c0 7.6-17.36 18.56-44.48 18.56s-44.48-10.96-44.48-18.56zm52.48 77.6v-43.36c30.4-2.08 52.48-16 52.48-34.32v-14c30.8 6.4 128 31.52 134.56 91.68h-187.04z"/></symbol><symbol viewBox="0 0 26.649 26.649" id="telegram" xmlns="http://www.w3.org/2000/svg"><path d="M26.157 1.238A2.3 2.3 0 0 0 24.31.346c-.478 0-.973.133-1.472.395L1.593 11.88c-1.51.793-1.615 1.987-1.59 2.463.024.479.255 1.654 1.839 2.283L4.557 17.7a4.63 4.63 0 0 0 1.711.309c.098 0 .192-.013.289-.018-.037.048-.082.085-.116.135-.506.757-.531 1.783-.073 2.888a.887.887 0 0 0 .021.051c.803 1.779 1.696 3.787 1.804 4.066a1.828 1.828 0 0 0 1.688 1.172c1.146 0 1.486-.552 3.361-3.604.146-.224.471-.744.526-1.406l.601.242 3.008 1.226c.603.246 1.131.463 1.409.578a1.807 1.807 0 0 0 .937.264c1.368 0 1.696-1.185 1.872-1.82.087-.314.207-.749.336-1.229l4.588-16.858c.346-1.273-.079-2.086-.362-2.458zm-14.43 20.501S10.025 24.51 9.88 24.51c-.004 0-.006-.002-.008-.006-.167-.449-1.849-4.176-1.849-4.176-.31-.747-.254-1.387.279-1.387.117 0 .257.031.421.099l1.306.679c.218.149.456.278.718.381l.066.025.123.062c1.009.534 1.33.727.791 1.552zM24.789 3.224l-4.586 16.858c-.259.95-.475 1.727-.479 1.727-.004-.002-.009-.02-.009-.023 0-.006-.748-.312-1.662-.686l-3.01-1.226c-.914-.37-2.413-.969-3.332-1.323l-.152-.061-.562-.292c-.557-.427-.606-1.131-.046-1.728l9.312-9.971c.374-.399.515-.605.434-.605-.064 0-.271.133-.617.404L8.298 15.592c-.514.401-1.295.625-2.029.625-.376 0-.741-.06-1.052-.183l-2.713-1.073c-.917-.363-.952-1.033-.079-1.493L23.672 2.327c.245-.128.46-.188.638-.188.457 0 .665.4.479 1.085z"/></symbol><symbol viewBox="0 0 201.387 201.387" id="test" xmlns="http://www.w3.org/2000/svg"><path d="M129.413 24.885C127.389 10.699 115.041 0 100.692 0 91.464 0 82.7 4.453 77.251 11.916a3.413 3.413 0 1 0 5.51 4.026c4.171-5.707 10.873-9.115 17.93-9.115 10.974 0 20.415 8.178 21.963 19.021a3.417 3.417 0 0 0 3.862 2.898 3.415 3.415 0 0 0 2.897-3.861zm49.299 38.211l-10.24-17.067a3.409 3.409 0 0 0-2.927-1.657h-9.813a3.414 3.414 0 0 0 0 6.826h7.881l6.144 10.24H31.626l6.144-10.24h3.615a3.414 3.414 0 0 0 0-6.826h-5.547c-1.2 0-2.311.628-2.927 1.657l-10.24 17.067a3.417 3.417 0 0 0 2.927 5.171h150.187a3.414 3.414 0 0 0 2.927-5.171z"/><path d="M161.698 31.623a3.408 3.408 0 0 0-2.123-1.524l-46.531-10.883a3.42 3.42 0 0 0-2.579.423 3.416 3.416 0 0 0-1.522 2.123l-3.509 15a3.41 3.41 0 0 0 2.546 4.099 3.412 3.412 0 0 0 4.101-2.546l2.732-11.675 39.883 9.329-6.267 26.795a3.41 3.41 0 0 0 3.328 4.189 3.408 3.408 0 0 0 3.318-2.635L162.12 34.2a3.4 3.4 0 0 0-.422-2.577zm-59.201 8.069l-3.11-26.305a3.413 3.413 0 0 0-3.791-2.99l-57.09 6.748a3.414 3.414 0 0 0-2.988 3.791l5.185 43.873a3.414 3.414 0 1 0 6.78-.801l-4.785-40.486 50.311-5.946 2.708 22.915a3.413 3.413 0 1 0 6.78-.799z"/><path d="M129.492 63.556l-6.775-28.174a3.422 3.422 0 0 0-1.536-2.113 3.434 3.434 0 0 0-2.581-.406L63.613 46.087a3.414 3.414 0 0 0-2.521 4.117l3.386 14.082a3.414 3.414 0 0 0 6.637-1.596l-2.589-10.764 48.35-11.626 5.977 24.854a3.413 3.413 0 0 0 4.118 2.519 3.414 3.414 0 0 0 2.521-4.117z"/><path d="M179.197 64.679a3.415 3.415 0 0 0-3.41-3.238H25.6a3.414 3.414 0 0 0-3.41 3.238l-6.827 133.12a3.415 3.415 0 0 0 3.409 3.588h163.84c.935 0 1.83-.384 2.478-1.062a3.422 3.422 0 0 0 .934-2.526l-6.827-133.12zM22.364 194.56l6.477-126.293h143.701l6.477 126.293H22.364z"/><path d="M126.292 75.093c-5.647 0-10.24 4.593-10.24 10.24s4.593 10.24 10.24 10.24 10.24-4.593 10.24-10.24-4.593-10.24-10.24-10.24zm0 13.654c-1.883 0-3.413-1.531-3.413-3.413s1.531-3.413 3.413-3.413 3.413 1.531 3.413 3.413-1.531 3.413-3.413 3.413zm-51.2-13.654c-5.647 0-10.24 4.593-10.24 10.24s4.593 10.24 10.24 10.24 10.24-4.593 10.24-10.24-4.593-10.24-10.24-10.24zm0 13.654c-1.882 0-3.413-1.531-3.413-3.413s1.531-3.413 3.413-3.413 3.413 1.531 3.413 3.413-1.531 3.413-3.413 3.413z"/><path d="M126.292 85.333h-.263a3.414 3.414 0 0 0-3.15 4.729v17.457c0 12.233-9.953 22.187-22.187 22.187s-22.187-9.953-22.187-22.187V88.747a3.414 3.414 0 0 0-6.826 0v18.773c0 15.998 13.015 29.013 29.013 29.013s29.013-13.015 29.013-29.013V88.747a3.415 3.415 0 0 0-3.413-3.414z"/></symbol><symbol viewBox="0 0 438.529 438.529" id="trash" xmlns="http://www.w3.org/2000/svg"><path d="M417.689 75.654c-1.711-1.709-3.901-2.568-6.563-2.568h-88.224L302.917 25.41c-2.854-7.044-7.994-13.04-15.413-17.989C280.078 2.473 272.556 0 264.945 0h-91.363c-7.611 0-15.131 2.473-22.554 7.421-7.424 4.949-12.563 10.944-15.419 17.989l-19.985 47.676h-88.22c-2.667 0-4.853.859-6.567 2.568-1.709 1.713-2.568 3.903-2.568 6.567v18.274c0 2.664.855 4.854 2.568 6.564 1.714 1.712 3.904 2.568 6.567 2.568H54.81v271.8c0 15.803 4.473 29.266 13.418 40.398 8.947 11.139 19.701 16.703 32.264 16.703h237.542c12.566 0 23.319-5.756 32.265-17.268 8.945-11.52 13.415-25.174 13.415-40.971V109.627h27.411c2.662 0 4.853-.856 6.563-2.568 1.708-1.709 2.57-3.9 2.57-6.564V82.221c.002-2.664-.861-4.854-2.569-6.567zM169.301 39.678c1.331-1.712 2.95-2.762 4.853-3.14h90.504c1.903.381 3.525 1.43 4.854 3.14l13.709 33.404h-127.91l13.99-33.404zm177.872 340.613c0 4.186-.664 8.042-1.999 11.561-1.334 3.518-2.717 6.088-4.141 7.706-1.431 1.622-2.423 2.427-2.998 2.427H100.493c-.571 0-1.565-.805-2.996-2.427-1.429-1.618-2.81-4.188-4.143-7.706-1.331-3.519-1.997-7.379-1.997-11.561V109.627h255.815v270.664z"/><path d="M137.04 347.172h18.271c2.667 0 4.858-.855 6.567-2.567 1.709-1.718 2.568-3.901 2.568-6.57V173.581c0-2.663-.859-4.853-2.568-6.567-1.714-1.709-3.899-2.565-6.567-2.565H137.04c-2.667 0-4.854.855-6.567 2.565-1.711 1.714-2.568 3.904-2.568 6.567v164.454c0 2.669.854 4.853 2.568 6.57 1.713 1.711 3.9 2.567 6.567 2.567zm73.089 0H228.4c2.666 0 4.856-.855 6.564-2.567 1.718-1.718 2.569-3.901 2.569-6.57V173.581c0-2.663-.852-4.853-2.569-6.567-1.708-1.709-3.898-2.565-6.564-2.565h-18.271c-2.664 0-4.854.855-6.567 2.565-1.714 1.714-2.568 3.904-2.568 6.567v164.454c0 2.669.854 4.853 2.568 6.57 1.712 1.711 3.903 2.567 6.567 2.567zm73.091 0h18.268c2.669 0 4.859-.855 6.57-2.567 1.711-1.718 2.562-3.901 2.562-6.57V173.581c0-2.663-.852-4.853-2.562-6.567-1.711-1.709-3.901-2.565-6.57-2.565H283.22c-2.67 0-4.853.855-6.571 2.565-1.711 1.714-2.566 3.904-2.566 6.567v164.454c0 2.669.855 4.853 2.566 6.57 1.718 1.711 3.901 2.567 6.571 2.567z"/></symbol><symbol viewBox="0 0 33.293 33.293" id="upload" xmlns="http://www.w3.org/2000/svg"><path d="M16.646 24.786a.5.5 0 0 1-.5-.5l.001-11.279a.5.5 0 0 1 1 0l-.001 11.279a.5.5 0 0 1-.5.5z"/><path d="M20.959 17.819a.502.502 0 0 1-.354-.146l-3.959-3.959-3.959 3.959a.5.5 0 0 1-.707-.707l4.313-4.313a.5.5 0 0 1 .707 0l4.313 4.313a.5.5 0 0 1-.354.853z"/><path d="M27.578 33.293H5.715a2.503 2.503 0 0 1-2.5-2.5V2.5c0-1.379 1.122-2.5 2.5-2.5h15.877a.5.5 0 0 1 0 1H5.715c-.827 0-1.5.673-1.5 1.5v28.293c0 .827.673 1.5 1.5 1.5h21.863c.827 0 1.5-.673 1.5-1.5V8.704a.5.5 0 0 1 1 0v22.09a2.502 2.502 0 0 1-2.5 2.499z"/><path d="M29.578 9.204h-7.986a.5.5 0 0 1-.5-.5V.717a.5.5 0 0 1 1 0v7.486h7.486a.5.5 0 0 1 0 1.001z"/><path d="M29.578 9.204a.5.5 0 0 1-.358-.151L21.234.85a.5.5 0 0 1 .717-.697l7.986 8.203a.5.5 0 0 1-.359.848z"/></symbol><symbol viewBox="0 0 47.834 47.834" id="visa" xmlns="http://www.w3.org/2000/svg"><path d="M19.153 16.799l-2.431 14.266h3.888l2.433-14.266zm-5.691.016l-3.808 9.729-.406-1.469c-.751-1.77-2.883-4.312-5.386-5.914l3.482 11.897 4.114-.007 6.123-14.239-4.119.003z"/><path d="M7.772 17.836c-.226-.869-.881-1.128-1.694-1.159H.05l-.05.284c4.691 1.138 7.795 3.88 9.083 7.177l-1.311-6.302zm23.151 1.698a7.178 7.178 0 0 1 2.91.546l.351.165.526-3.092c-.77-.289-1.977-.599-3.483-.599-3.842 0-6.55 1.935-6.571 4.708-.025 2.049 1.929 3.193 3.405 3.876 1.515.7 2.023 1.145 2.016 1.77-.012.955-1.208 1.393-2.325 1.393-1.557 0-2.384-.215-3.661-.747l-.501-.228-.547 3.193c.91.399 2.589.742 4.332.76 4.087 0 6.743-1.912 6.771-4.875.017-1.621-1.02-2.858-3.267-3.873-1.36-.662-2.192-1.102-2.184-1.77 0-.593.706-1.227 2.228-1.227zm13.765-2.719h-3.004c-.933 0-1.627.254-2.037 1.184l-5.773 13.074h4.083s.666-1.758.817-2.143l4.979.006c.116.498.474 2.137.474 2.137h3.607l-3.146-14.258zm-4.795 9.195c.32-.819 1.549-3.987 1.549-3.987-.021.039.317-.825.518-1.362l.262 1.23.901 4.119h-3.23z"/></symbol></svg>